# xmcd
#
# Track frame offsets:
#	150
#	12934
#	23527
#	34009
#	44126
#	55846
#	65999
#	76662
#	94784
#	109225
#	120090
#	134960
#	148956
#	161546
#	171693
#
# Disc length: 2461 seconds
# Revision: 0
# Processed by: cddbd v1.5.2PL0 Copyright (c) Steve Scherf et al.
# Submitted via: dBpowerAMP V12.0
#
DISCID=d6099b0f
DTITLE=Angela Lidin - Sometimes I Am
DYEAR=2008
DGENRE=Country
TTITLE0=Bringing Me Back
TTITLE1=That Kind Of Man
TTITLE2=Lightning
TTITLE3=A Life Passes By
TTITLE4=A Choice People Make
TTITLE5=Shack On The Hill - Instrumental
TTITLE6=Mr. Radioman
TTITLE7=Cal Alvin
TTITLE8=Sometimes I Am
TTITLE9=The Mood I'm In
TTITLE10=Freedom Calls - with Arly Karlsen
TTITLE11=Don't Try To Find Me
TTITLE12=Through The Veil
TTITLE13=Shack On The Hill
TTITLE14=The Miracle Of Life
EXTD=
EXTT0=
EXTT1=
EXTT2=
EXTT3=
EXTT4=
EXTT5=
EXTT6=
EXTT7=
EXTT8=
EXTT9=
EXTT10=
EXTT11=
EXTT12=
EXTT13=
EXTT14=
PLAYORDER=
